<?xml version="1.0" encoding="UTF-8"?>
<svg id="logosandtypes_com" data-name="logosandtypes com" xmlns="http://www.w3.org/2000/svg" viewBox="0 0 150 150">
  <defs>
    <style>
      .cls-1 {
        fill: #ea5a4f;
      }

      .cls-2 {
        fill: none;
      }
    </style>
  </defs>
  <path class="cls-2" d="M0,0H150V150H0V0Z"/>
  <path class="cls-1" d="M53.12,61.19v1.94c15.7,7.46,13.57,36.07,13.57,36.07,0,37.35,14.78,39.29,14.78,39.29-3.08-1.69-10.53-6.05-10.53-39.45,0-20.19-5.23-29.58-10-33.94,4.74,4.11,7.98,9.69,9.2,15.85,1.52,8,2.37,16.1,2.55,24.24,.63,13.77,1.17,25.13,11.14,33.66,.28,0,.59,.09,.91,.13-10.39-8.48-10.93-19.9-11.57-33.81-.19-8.16-1.05-16.29-2.57-24.31-1.26-6.5-4.81-12.33-10-16.43,4.33,2.86,8.59,8.48,10.53,16,2.29,8.88,2.91,17.38,3.44,24.87,1,14.32,1.88,26,13.17,33.92h.91c-11.7-7.81-12.56-19.55-13.6-34-.54-7.52-1.15-16-3.45-25-1.91-7.07-5.85-12.52-9.98-15.61,4.16,2.79,8.19,7.94,10.44,15.31,2.73,8.94,3.63,17.7,4.33,25.43,1.42,14.76,2.58,26.72,15,33.85l.89-.06c-12.79-7-14-19-15.39-33.83-.75-7.76-1.6-16.55-4.35-25.53-1.57-5.68-4.81-10.77-9.3-14.59,3.8,2.78,7.44,7.44,9.83,14.21,3.17,9,4.25,18,5.21,25.93,1.74,14.5,3.28,27.17,16.59,33.51l.82-.14c-13.64-6.08-15.11-18.27-16.94-33.44-1-8-2.05-17-5.23-26-2.64-7.47-6.79-12.42-11-15.13,4.7,2.69,8.78,7.82,11.57,14.77,3.59,8.93,4.92,18.19,6.09,26.36,2.12,14.73,4,27.57,17.89,33l.83-.21c-14.25-5.14-16-17.46-18.24-32.85-1.22-8.22-2.56-17.5-6.17-26.5-2.46-6.12-5.91-10.85-9.91-13.79,3.55,2.36,7.3,6.45,10.46,13.46,4,8.88,5.57,18.37,7,26.74,2.47,14.85,4.62,27.79,18.9,32.33l.81-.27c-14.6-4.27-16.76-17.23-19.23-32.14-1.4-8.4-3-17.92-7-26.86-3.44-7.64-7.59-11.88-11.45-14.19,4.65,2.5,8.62,7.1,12,13.87,4.41,8.82,6.23,18.53,7.84,27.09,2.79,14.88,5.24,27.84,19.62,31.58l.77-.31c-14.66-3.46-17.11-16.43-19.92-31.36-1.61-8.6-3.44-18.34-7.88-27.22-3.13-6.25-6.76-10.68-11-13.35,3.75,2.19,7.69,6.09,11.52,13,4.81,8.79,6.79,18.28,8.67,27.42,3.1,14.82,5.81,27.74,20,30.8l.74-.36c-14.48-2.76-17.2-15.68-20.31-30.54-1.83-8.79-3.92-18.74-8.76-27.54-4-7.21-8-11.19-11.95-13.38,4.2,2.09,8.27,6,12.52,13.09,5.2,8.65,7.43,18.33,9.58,27.69,3.38,14.68,6.34,27.49,20.22,30l.68-.37c-14.09-2.23-17-15-20.43-29.75-2.06-9-4.4-19.13-9.64-27.84-3.86-6.51-7.65-10.39-11.55-12.64,3.82,2,7.82,5.7,12.21,12.43,5.58,8.55,8.17,18.86,10.45,28,3.62,14.45,6.8,27.09,20.14,29.27l.66-.4c-13.53-1.88-16.71-14.52-20.33-29-2.29-9.14-4.89-19.5-10.51-28.12-7.26-11.14-13.43-14.34-21.07-15,4.08-.56,8.02-1.85,11.63-3.82,25.32-14.21,8.72-47.2-17.28-45.52v3.1c14.22,4,14.74,21.89,11.77,34.41-2.47,8.28-7.17,10.83-9.5,11.55-.46,.14-1.13,.3-1.72,.43h-.12Z"/>
</svg>